<svg width="52" height="48" viewBox="0 0 52 48" fill="none" xmlns="http://www.w3.org/2000/svg">
<rect width="52" height="48" rx="10" fill="#D4F0FF"/>
<path d="M26.3562 28.39C24.728 28.39 23.1001 27.77 21.8606 26.5305C19.3821 24.052 19.3821 20.0184 21.8606 17.5398C24.3396 15.0613 28.3732 15.0609 30.8517 17.5398C33.3307 20.0184 33.3307 24.052 30.8517 26.5305C29.6122 27.77 27.984 28.39 26.3562 28.39ZM26.3558 16.4681C24.9296 16.4681 23.503 17.0109 22.4172 18.0968C20.2454 20.2685 20.2454 23.8019 22.4172 25.9736C24.5889 28.1454 28.1227 28.1454 30.2944 25.9736C32.4662 23.8019 32.4662 20.2685 30.2944 18.0968C29.2085 17.0113 27.7824 16.4681 26.3558 16.4681Z" fill="#331B3B"/>
<path d="M39.272 32.8646L34.0372 27.6294C33.5591 27.1513 32.8336 27.0764 32.2707 27.3935L31.1155 26.2383C33.3196 23.7444 33.2361 19.9247 30.8512 17.5402C28.3731 15.0613 24.3391 15.0617 21.8602 17.5402C19.3816 20.0188 19.3816 24.0524 21.8602 26.5309C23.0996 27.77 24.7275 28.3904 26.3557 28.3904C27.8603 28.3904 29.3609 27.8539 30.5586 26.7956L31.7138 27.9508C31.3967 28.5136 31.4712 29.2387 31.9497 29.7173L37.1849 34.9521C37.4626 35.2302 37.8332 35.3834 38.2283 35.3834C38.6233 35.3834 38.994 35.2302 39.2716 34.9521C39.5497 34.674 39.7029 34.3034 39.7029 33.9084C39.7029 33.5133 39.5501 33.1423 39.272 32.8646ZM22.4175 25.974C20.2457 23.8023 20.2457 20.2689 22.4175 18.0972C23.5033 17.0113 24.9295 16.4685 26.3561 16.4685C27.7827 16.4685 29.2088 17.0113 30.2947 18.0972C32.4665 20.2689 32.4665 23.8023 30.2947 25.974C28.123 28.1458 24.5888 28.1454 22.4175 25.974ZM38.7151 34.3952C38.4567 34.6536 38.0006 34.6536 37.7419 34.3952L32.5067 29.16C32.2384 28.8913 32.2384 28.455 32.5067 28.1863C32.641 28.0524 32.817 27.9851 32.9935 27.9851C33.1695 27.9851 33.346 28.052 33.4799 28.1863L38.7147 33.4216C38.8439 33.5507 38.9152 33.7236 38.9152 33.908C38.9152 34.0923 38.8443 34.2656 38.7151 34.3952Z" fill="#331B3B"/>
<path d="M22.2342 24.2985C22.1149 24.2985 21.9971 24.2445 21.9199 24.1425C21.7888 23.9692 21.8226 23.7219 21.9963 23.5907L27.6802 19.289C27.7692 19.222 27.8818 19.1952 27.9913 19.2161C28.1004 19.237 28.1961 19.3028 28.254 19.3977L30.0142 22.2827L30.6066 21.8573C30.7822 21.7297 31.0288 21.7707 31.1564 21.9475C31.2832 22.1244 31.243 22.3702 31.0662 22.4974L30.1292 23.1705C30.0402 23.2343 29.9279 23.2591 29.8216 23.2367C29.7141 23.215 29.6203 23.1492 29.5636 23.0559L27.809 20.1799L22.4721 24.2186C22.4004 24.2725 22.3169 24.2985 22.2342 24.2985Z" fill="#331B3B"/>
<path d="M36.5796 28.863C36.7974 28.863 36.9735 28.6869 36.9735 28.4691V9.24038C36.9735 8.15725 36.0924 7.27618 35.0093 7.27618H18.2607C17.1776 7.27618 16.2969 8.15725 16.2969 9.24038V40.76C16.2969 41.8427 17.1779 42.7238 18.2607 42.7238H35.0089C36.092 42.7238 36.9731 41.8427 36.9731 40.76V35.975C36.9731 35.7572 36.797 35.5811 36.5792 35.5811C36.3614 35.5811 36.1854 35.7572 36.1854 35.975V36.9931H17.0846V25.3108L18.1047 26.9803C18.1626 27.0753 18.2583 27.141 18.3674 27.1619C18.3918 27.1666 18.4162 27.169 18.4407 27.169C18.5257 27.169 18.6092 27.1414 18.6786 27.0894L19.9271 26.145C20.1004 26.0134 20.1347 25.7665 20.0035 25.5932C19.872 25.4199 19.625 25.3856 19.4517 25.5167L18.5502 26.1989L17.0846 23.8003V11.7946H36.1857V17.8498L33.348 19.8888C33.1711 20.0157 33.1306 20.2618 33.2578 20.4387C33.3346 20.5458 33.4555 20.6029 33.578 20.6029C33.6575 20.6029 33.7379 20.5789 33.8072 20.5289L36.1857 18.8199V28.4695C36.1857 28.6865 36.3618 28.863 36.5796 28.863ZM36.1857 37.7808V40.7596C36.1857 41.4079 35.658 41.9357 35.0093 41.9357H18.2607C17.6124 41.9357 17.0846 41.4079 17.0846 40.7596V37.7808H36.1857ZM17.0846 11.0068V9.24038C17.0846 8.59168 17.6124 8.06391 18.2607 8.06391H35.0089C35.6576 8.06391 36.1854 8.59168 36.1854 9.24038V11.0068H17.0846V11.0068Z" fill="#331B3B"/>
<path d="M26.6349 41.278C25.8638 41.278 25.2363 40.6505 25.2363 39.8793C25.2363 39.1082 25.8638 38.4803 26.6349 38.4803C27.4061 38.4803 28.0335 39.1082 28.0335 39.8793C28.0335 40.6505 27.4061 41.278 26.6349 41.278ZM26.6349 39.2685C26.2982 39.2685 26.0241 39.5426 26.0241 39.8797C26.0241 40.2169 26.2982 40.4906 26.6349 40.4906C26.9717 40.4906 27.2458 40.2169 27.2458 39.8797C27.2458 39.5426 26.9721 39.2685 26.6349 39.2685Z" fill="#331B3B"/>
<path d="M29.032 9.90244H24.2379C24.0204 9.90244 23.844 9.72599 23.844 9.50858C23.844 9.29117 24.0204 9.11472 24.2379 9.11472H29.032C29.2498 9.11472 29.4258 9.29117 29.4258 9.50858C29.4258 9.72599 29.2498 9.90244 29.032 9.90244Z" fill="#331B3B"/>
</svg>
