<svg width="52" height="48" viewBox="0 0 52 48" fill="none" xmlns="http://www.w3.org/2000/svg">
<rect width="52" height="48" rx="10" fill="#FFEED4"/>
<path d="M42.7391 30.1573H9.26074V12.7006C9.26074 11.5887 10.165 10.6844 11.2769 10.6844H40.7229C41.8344 10.6844 42.7391 11.5887 42.7391 12.7006V30.1573ZM10.0047 29.4133H41.9951V12.7006C41.9951 11.999 41.4245 11.4284 40.7229 11.4284H11.2769C10.5753 11.4284 10.0047 11.999 10.0047 12.7006V29.4133Z" fill="#331B3B"/>
<path d="M40.7229 34.7788H11.2769C10.165 34.7788 9.26074 33.8741 9.26074 32.7626V29.4133H42.7391V32.7626C42.7391 33.8741 41.8344 34.7788 40.7229 34.7788ZM10.0047 30.1573V32.7626C10.0047 33.4642 10.5753 34.0348 11.2769 34.0348H40.7229C41.4245 34.0348 41.9951 33.4642 41.9951 32.7626V30.1573H10.0047V30.1573Z" fill="#331B3B"/>
<path d="M31.1426 39.3776H20.8573C20.6966 39.3776 20.5542 39.2745 20.5039 39.1216C20.4537 38.9688 20.5077 38.8014 20.6371 38.7061C22.0499 37.6687 22.9929 36.0837 23.2242 34.3577C23.2488 34.1732 23.4065 34.0352 23.5929 34.0352H28.4063C28.5927 34.0352 28.7504 34.1728 28.7749 34.3577C29.0063 36.0841 29.9497 37.6687 31.3624 38.7061C31.4923 38.8014 31.5458 38.9688 31.4956 39.1216C31.4454 39.2745 31.3037 39.3776 31.1426 39.3776ZM21.8661 38.6336H30.1342C29.0766 37.5921 28.3546 36.2392 28.089 34.7788H23.9109C23.6457 36.2392 22.9237 37.5921 21.8661 38.6336Z" fill="#331B3B"/>
<path d="M31.9716 41.316H20.028C19.2885 41.316 18.687 40.7145 18.687 39.975C18.687 39.2355 19.2885 38.634 20.028 38.634H31.9716C32.7111 38.634 33.3126 39.2355 33.3126 39.975C33.3126 40.7145 32.7111 41.316 31.9716 41.316ZM20.028 39.3776C19.6988 39.3776 19.431 39.6454 19.431 39.9746C19.431 40.3038 19.6988 40.5717 20.028 40.5717H31.9716C32.3012 40.5717 32.5686 40.3038 32.5686 39.9746C32.5686 39.6454 32.3008 39.3776 31.9716 39.3776H20.028Z" fill="#331B3B"/>
<path d="M26.6326 32.468H25.3671C25.1618 32.468 24.9951 32.3018 24.9951 32.096C24.9951 31.8903 25.1618 31.7241 25.3671 31.7241H26.6326C26.8383 31.7241 27.0046 31.8903 27.0046 32.096C27.0046 32.3018 26.8383 32.468 26.6326 32.468Z" fill="#331B3B"/>
<path d="M22.7581 24.0393C21.4591 24.0393 21.0849 22.8832 20.784 21.9543C20.476 21.0032 20.2528 20.4203 19.5702 20.4203C19.3649 20.4203 19.1982 20.2536 19.1982 20.0483C19.1982 19.843 19.3649 19.6763 19.5702 19.6763C20.2528 19.6763 20.4764 19.0934 20.7844 18.1423C21.0853 17.2131 21.4595 16.0573 22.7585 16.0573C22.9638 16.0573 23.1305 16.224 23.1305 16.4293C23.1305 16.6346 22.9638 16.8013 22.7585 16.8013C22.0372 16.8013 21.8073 17.3979 21.4923 18.3714C21.3022 18.9588 21.082 19.638 20.6144 20.0483C21.082 20.4586 21.3022 21.1378 21.4923 21.7252C21.8073 22.6987 22.0372 23.2953 22.7585 23.2953C22.9638 23.2953 23.1305 23.462 23.1305 23.6673C23.1305 23.8726 22.9634 24.0393 22.7581 24.0393Z" fill="#331B3B"/>
<path d="M29.2416 24.0393C29.0359 24.0393 28.8696 23.8726 28.8696 23.6673C28.8696 23.462 29.0359 23.2953 29.2416 23.2953C29.9625 23.2953 30.1928 22.6987 30.5078 21.7248C30.6979 21.1378 30.9181 20.4582 31.3857 20.0483C30.9178 19.638 30.6975 18.9588 30.5078 18.3718C30.1924 17.3979 29.9625 16.8013 29.2416 16.8013C29.0359 16.8013 28.8696 16.6346 28.8696 16.4293C28.8696 16.224 29.0359 16.0573 29.2416 16.0573C30.5406 16.0573 30.9148 17.2134 31.2157 18.1423C31.5237 19.0934 31.7469 19.6763 32.4295 19.6763C32.6352 19.6763 32.8015 19.843 32.8015 20.0483C32.8015 20.2536 32.6352 20.4203 32.4295 20.4203C31.7469 20.4203 31.5233 21.0032 31.2153 21.9543C30.9148 22.8832 30.5406 24.0393 29.2416 24.0393Z" fill="#331B3B"/>
<path d="M24.5376 24.9034C24.4986 24.9034 24.4588 24.8971 24.4193 24.884C24.2248 24.8186 24.1195 24.6077 24.185 24.4131L27.1906 15.4473C27.256 15.2527 27.467 15.1478 27.6615 15.2129C27.8564 15.2784 27.9617 15.4893 27.8962 15.6838L24.8906 24.6497C24.8382 24.8048 24.6931 24.9034 24.5376 24.9034Z" fill="#331B3B"/>
</svg>
