<svg width="63" height="65" viewBox="0 0 63 65" fill="none" xmlns="http://www.w3.org/2000/svg">
<path d="M49.3078 43.0028C46.3817 47.9702 41.3282 51.9318 35.7454 53.9043C30.164 55.8763 24.1688 55.8248 19.2969 52.955C14.425 50.0852 11.4736 44.8665 10.4925 39.0289C9.51118 33.1897 10.5261 26.8493 13.4522 21.8818C16.3784 16.9144 21.4318 12.9529 27.0146 10.9804C32.596 9.00835 38.5912 9.05982 43.4631 11.9296C48.3351 14.7995 51.2865 20.0181 52.2676 25.8558C53.2489 31.6949 52.2339 38.0353 49.3078 43.0028Z" stroke="white" stroke-opacity="0.64" stroke-width="2"/>
<g clip-path="url(#clip0_102_264)">
<path fill-rule="evenodd" clip-rule="evenodd" d="M40.8297 41.4424H37.1313V35.1431C37.1313 33.416 36.475 32.4509 35.108 32.4509C33.6209 32.4509 32.844 33.4553 32.844 35.1431V41.4424H29.2797V29.4424H32.844V31.0588C32.844 31.0588 33.9156 29.0758 36.4621 29.0758C39.0074 29.0758 40.8297 30.6301 40.8297 33.8447V41.4424ZM25.0276 27.8711C23.8135 27.8711 22.8297 26.8796 22.8297 25.6567C22.8297 24.4339 23.8135 23.4424 25.0276 23.4424C26.2416 23.4424 27.2248 24.4339 27.2248 25.6567C27.2248 26.8796 26.2416 27.8711 25.0276 27.8711ZM23.1871 41.4424H26.9037V29.4424H23.1871V41.4424Z" fill="white"/>
</g>
<defs>
<clipPath id="clip0_102_264">
<rect width="18" height="18" fill="white" transform="translate(22.8297 23.4424)"/>
</clipPath>
</defs>
</svg>
