<svg width="261" height="261" viewBox="0 0 261 261" fill="none" xmlns="http://www.w3.org/2000/svg">
<g filter="url(#filter0_d_102_194)">
<rect x="40.7241" y="36.4058" width="180" height="180" rx="32" fill="white"/>
<rect x="41.2241" y="36.9058" width="179" height="179" rx="31.5" stroke="white"/>
</g>
<path d="M88.1079 125.999C88.1079 142.978 97.9746 157.649 112.282 164.603L91.8215 108.542C89.3687 114.035 88.1033 119.983 88.1079 125.999V125.999ZM159.957 123.834C159.957 118.533 158.053 114.862 156.42 112.005C154.246 108.471 152.209 105.479 152.209 101.946C152.209 98.0032 155.198 94.3328 159.41 94.3328C159.601 94.3328 159.781 94.3565 159.967 94.3671C152.335 87.3758 142.168 83.1072 131.001 83.1072C116.016 83.1072 102.832 90.7955 95.1629 102.441C96.1693 102.471 97.1185 102.491 97.9232 102.491C102.41 102.491 109.355 101.947 109.355 101.947C111.667 101.811 111.939 105.207 109.63 105.48C109.63 105.48 107.306 105.754 104.72 105.889L120.34 152.35L129.728 124.197L123.044 105.888C120.734 105.753 118.546 105.479 118.546 105.479C116.235 105.344 116.506 101.81 118.817 101.946C118.817 101.946 125.901 102.49 130.116 102.49C134.601 102.49 141.547 101.946 141.547 101.946C143.861 101.81 144.132 105.206 141.822 105.479C141.822 105.479 139.493 105.753 136.913 105.888L152.413 151.997L156.691 137.7C158.546 131.767 159.957 127.506 159.957 123.834V123.834Z" fill="#00749A"/>
<path d="M131.753 129.751L118.884 167.146C122.819 168.306 126.899 168.894 131.001 168.894C135.996 168.894 140.786 168.03 145.245 166.463C145.125 166.276 145.023 166.078 144.94 165.872L131.753 129.751ZM168.638 105.42C168.822 106.786 168.927 108.253 168.927 109.83C168.927 114.183 168.114 119.076 165.666 125.194L152.563 163.075C165.315 155.639 173.893 141.823 173.893 125.999C173.904 118.806 172.096 111.727 168.638 105.42V105.42Z" fill="#00749A"/>
<path d="M131.001 76C103.431 76 81.0005 98.4292 81.0005 125.999C81.0005 153.572 103.431 176.001 131.001 176.001C158.57 176.001 181.004 153.572 181.004 125.999C181.003 98.4292 158.57 76 131.001 76ZM131.001 173.708C104.696 173.708 83.2931 152.306 83.2931 125.999C83.2931 99.6943 104.695 78.2934 131.001 78.2934C157.305 78.2934 178.706 99.6943 178.706 125.999C178.706 152.306 157.305 173.708 131.001 173.708Z" fill="#00749A"/>
<defs>
<filter id="filter0_d_102_194" x="0.724121" y="0.405762" width="260" height="260" filterUnits="userSpaceOnUse" color-interpolation-filters="sRGB">
<feFlood flood-opacity="0" result="BackgroundImageFix"/>
<feColorMatrix in="SourceAlpha" type="matrix" values="0 0 0 0 0 0 0 0 0 0 0 0 0 0 0 0 0 0 127 0" result="hardAlpha"/>
<feOffset dy="4"/>
<feGaussianBlur stdDeviation="20"/>
<feComposite in2="hardAlpha" operator="out"/>
<feColorMatrix type="matrix" values="0 0 0 0 0.0367917 0 0 0 0 0.0348958 0 0 0 0 0.0484375 0 0 0 0.1 0"/>
<feBlend mode="normal" in2="BackgroundImageFix" result="effect1_dropShadow_102_194"/>
<feBlend mode="normal" in="SourceGraphic" in2="effect1_dropShadow_102_194" result="shape"/>
</filter>
</defs>
</svg>
