<svg width="52" height="48" viewBox="0 0 52 48" fill="none" xmlns="http://www.w3.org/2000/svg">
<rect width="52" height="48" rx="10" fill="#FFDED4"/>
<g clip-path="url(#clip0_103_274)">
<path d="M26.0001 38.7698C17.856 38.7698 11.2302 32.1441 11.2302 24C11.2302 15.8559 17.856 9.23015 26.0001 9.23015C34.1442 9.23015 40.7699 15.8559 40.7699 24C40.7699 32.1441 34.1442 38.7698 26.0001 38.7698ZM26.3283 29.3034C28.4545 29.3375 30.5157 29.7005 32.3895 30.353C32.8566 28.534 33.1293 26.4908 33.1546 24.3282H26.3283V29.3034ZM26.3283 29.9598V38.097C28.8487 37.8715 31.0323 35.0636 32.2159 30.9871C30.4008 30.3497 28.3977 29.9939 26.3283 29.9598ZM25.6718 29.9598C23.6021 29.9939 21.5993 30.3497 19.7839 30.9874C20.9675 35.0636 23.1511 37.8715 25.6718 38.097V29.9598ZM25.6718 29.3034V24.3282H18.8456C18.8708 26.4908 19.1436 28.534 19.6106 30.353C21.4844 29.7005 23.5456 29.3375 25.6718 29.3034ZM18.1891 24.3282H11.8949C11.969 27.5507 13.1263 30.5089 15.0189 32.8521C16.1709 31.9219 17.5199 31.1545 19.0047 30.5749C18.5055 28.686 18.2154 26.568 18.1891 24.3282ZM18.1891 23.6718C18.215 21.432 18.5055 19.314 19.0047 17.4248C17.5202 16.8452 16.1709 16.0778 15.0192 15.1476C13.1263 17.4911 11.969 20.4493 11.8949 23.6718H18.1891ZM18.8456 23.6718H25.6718V18.697C23.5456 18.6628 21.4844 18.2995 19.6106 17.647C19.1436 19.466 18.8708 21.5091 18.8456 23.6718ZM25.6718 18.0405V9.903C23.1511 10.1285 20.9675 12.9364 19.7839 17.0129C21.5993 17.6503 23.6024 18.0061 25.6718 18.0405ZM26.3283 18.0405C28.3977 18.0064 30.4008 17.6506 32.2159 17.0132C31.0323 12.9364 28.849 10.1285 26.3283 9.903V18.0405ZM26.3283 18.697V23.6718H33.1546C33.1293 21.5091 32.8566 19.466 32.3895 17.647C30.5157 18.2995 28.4545 18.6628 26.3283 18.697ZM33.8107 23.6718H40.1053C40.0311 20.4493 38.8738 17.4911 36.981 15.1476C35.8289 16.0778 34.4799 16.8455 32.9951 17.4248C33.4943 19.3143 33.7848 21.432 33.8107 23.6718ZM33.8107 24.3282C33.7848 26.568 33.4943 28.6856 32.9951 30.5749C34.4799 31.1545 35.8289 31.9219 36.981 32.8521C38.8738 30.5086 40.0308 27.5503 40.1049 24.3282H33.8107ZM36.5566 33.3529C35.4748 32.4815 34.2091 31.7604 32.8168 31.2103C31.9146 34.2457 30.4622 36.6213 28.7161 37.8485C31.8089 37.243 34.542 35.6242 36.5566 33.3529ZM23.2841 37.8485C21.5379 36.6213 20.0856 34.2457 19.1833 31.2106C17.791 31.7607 16.5254 32.4818 15.4436 33.3532C17.4578 35.6242 20.1909 37.243 23.2841 37.8485ZM15.4432 14.6471C16.525 15.5185 17.7903 16.2396 19.183 16.7897C20.0852 13.7546 21.5376 11.379 23.2837 10.1518C20.1909 10.757 17.4578 12.3758 15.4432 14.6471ZM28.7161 10.1515C30.4622 11.3787 31.9146 13.7543 32.8168 16.7897C34.2095 16.2396 35.4748 15.5185 36.5566 14.6471C34.542 12.3758 31.8092 10.757 28.7161 10.1515Z" fill="black"/>
</g>
<defs>
<clipPath id="clip0_103_274">
<rect width="30" height="30" fill="white" transform="matrix(1 0 0 -1 11 39)"/>
</clipPath>
</defs>
</svg>
